<svg xmlns="http://www.w3.org/2000/svg" width="1240" height="1240"><path d="M588.505 1.076C333.619 14.22 113.28 180.71 32.1 421.5-6.343 535.529-9.893 662.195 22.074 779.297c54.356 199.118 207.205 359.296 404.19 423.573 125.826 41.057 261.646 41.057 387.472 0 174.126-56.818 315.446-189.5 382.766-359.37 24.57-61.999 39.681-131.621 42.167-194.289.356-8.958 1.026-16.522 1.489-16.809.463-.286.842-7.72.842-16.52s-.38-15.765-.845-15.478c-.465.287-1.134-6.774-1.488-15.691-2.485-62.59-17.608-132.246-42.165-194.213-49.57-125.082-140.953-232.48-256.9-301.921C833.95 25.303 711.327-5.258 588.505 1.076M445.665 316.75c-7.886 11.962-23.609 36.223-34.94 53.912l-20.601 32.163-.312 26.058c-.172 14.332-.047 25.3.276 24.374.377-1.079.823-.218 1.24 2.394.359 2.243 2.445 7.659 4.635 12.036 4.984 9.957 13.116 18.035 22.749 22.598 6.56 3.107 7.224 3.215 19.788 3.215 12.578 0 13.221-.105 19.825-3.233 12.122-5.741 22.864-18.703 26.76-32.292.881-3.073 1.304-12.307 1.349-29.475l.066-25 15.841-40.5c8.712-22.275 16.66-42.975 17.661-46 1-3.025 3.208-9.1 4.905-13.5s3.087-8.113 3.089-8.25c.002-.137-15.295-.25-33.994-.25h-33.997l-14.34 21.75m152.067-10.5c-2.161 15.516-7.256 53.419-10.25 76.25-3.12 23.787-3.601 63.372-.898 73.856 3.73 14.465 14.501 27.949 27.091 33.911 6.608 3.13 7.24 3.233 19.877 3.233h13.052l7.593-3.753c12.978-6.414 23.772-20.648 26.831-35.38.727-3.506.971-14.842.699-32.62-.342-22.437-.891-30.689-3.106-46.747a7394.676 7394.676 0 01-5.122-38c-1.337-10.175-3.189-23.788-4.114-30.25L667.702 295h-68.404l-1.566 11.25m141.518-10c6.32 17.037 11.798 31.376 25.12 65.75l16.084 41.5.069 25.5c.064 23.678.226 25.924 2.261 31.432 5.082 13.752 13.84 23.793 25.964 29.768 6.167 3.039 7.584 3.327 17.958 3.636 8.598.256 12.508-.067 16.528-1.367 14.969-4.837 27.95-19.244 32.409-35.969.936-3.508 1.337-12.257 1.345-29.325l.012-24.324-13.662-21.176c-7.514-11.646-17.271-26.8-21.683-33.675-4.411-6.875-14.012-21.613-21.335-32.75L807.005 295h-34.109c-26.869 0-34.012.265-33.646 1.25M584.079 454.583c.048 1.165.285 1.402.604.605.289-.722.253-1.585-.079-1.917-.332-.332-.568.258-.525 1.312m195 0c.048 1.165.285 1.402.604.605.289-.722.253-1.585-.079-1.917-.332-.332-.568.258-.525 1.312m-394.515 12.124c-.542 1.425-.428 1.54.56.56.684-.679.991-1.486.683-1.793-.308-.308-.867.247-1.243 1.233M773 470c-.589 1.1-.845 2-.57 2s.981-.9 1.57-2c.589-1.1.845-2 .57-2s-.981.9-1.57 2m-201.076 8.75l-2.424 2.75 2.75-2.424c1.513-1.334 2.75-2.571 2.75-2.75 0-.785-.81-.146-3.076 2.424M374 481.5c-2.429 2.475-4.191 4.5-3.916 4.5.275 0 2.487-2.025 4.916-4.5 2.429-2.475 4.191-4.5 3.916-4.5-.275 0-2.487 2.025-4.916 4.5m124-4.122c0 .207.788.995 1.75 1.75 1.586 1.243 1.621 1.208.378-.378-1.307-1.666-2.128-2.195-2.128-1.372m393 3.122c1.866 1.925 3.617 3.5 3.892 3.5.275 0-1.026-1.575-2.892-3.5-1.866-1.925-3.617-3.5-3.892-3.5-.275 0 1.026 1.575 2.892 3.5m-193 1.878c0 .207.788.995 1.75 1.75 1.586 1.243 1.621 1.208.378-.378-1.307-1.666-2.128-2.195-2.128-1.372m203 6.052c0 .275.9.981 2 1.57 1.1.589 2 .845 2 .57s-.9-.981-2-1.57c-1.1-.589-2-.845-2-.57M556 491c-.901.582-1.025.975-.309.985.655.008 1.469-.435 1.809-.985.767-1.242.421-1.242-1.5 0m195 0c-.901.582-1.025.975-.309.985.655.008 1.469-.435 1.809-.985.767-1.242.421-1.242-1.5 0m157 1.5c1.375.786 3.175 1.427 4 1.425.825-.002-.014-.661-1.865-1.464-4.258-1.849-5.401-1.828-2.135.039m-552.5.5c-1.319.567-1.489.878-.5.914.825.031 2.175-.381 3-.914 1.828-1.181.249-1.181-2.5 0m163.5 0c.825.533 2.175.945 3 .914.989-.036.819-.347-.5-.914-2.749-1.181-4.328-1.181-2.5 0m31.5 0c-1.319.567-1.489.878-.5.914.825.031 2.175-.381 3-.914 1.828-1.181.249-1.181-2.5 0m163.5 0c.825.533 2.175.945 3 .914.989-.036.819-.347-.5-.914-2.749-1.181-4.328-1.181-2.5 0m31.5 0c-1.319.567-1.489.878-.5.914.825.031 2.175-.381 3-.914 1.828-1.181.249-1.181-2.5 0m-415.687 1.683c.721.289 1.584.253 1.916-.079.332-.332-.258-.568-1.312-.525-1.165.048-1.402.285-.604.604m21 0c.721.289 1.584.253 1.916-.079.332-.332-.258-.568-1.312-.525-1.165.048-1.402.285-.604.604m174 0c.721.289 1.584.253 1.916-.079.332-.332-.258-.568-1.312-.525-1.165.048-1.402.285-.604.604m21 0c.721.289 1.584.253 1.916-.079.332-.332-.258-.568-1.312-.525-1.165.048-1.402.285-.604.604m174 0c.721.289 1.584.253 1.916-.079.332-.332-.258-.568-1.312-.525-1.165.048-1.402.285-.604.604m21 0c.721.289 1.584.253 1.916-.079.332-.332-.258-.568-1.312-.525-1.165.048-1.402.285-.604.604m173.937-.021c.688.278 1.813.278 2.5 0 .688-.277.125-.504-1.25-.504s-1.937.227-1.25.504m21.063.021c.721.289 1.584.253 1.916-.079.332-.332-.258-.568-1.312-.525-1.165.048-1.402.285-.604.604m-599.037 1.05c2.352.212 5.952.209 8-.006s.124-.388-4.276-.384c-4.4.003-6.076.179-3.724.39m195 0c2.352.212 5.952.209 8-.006s.124-.388-4.276-.384c-4.4.003-6.076.179-3.724.39m196 0c2.352.212 5.952.209 8-.006s.124-.388-4.276-.384c-4.4.003-6.076.179-3.724.39m194.474-.005c2.063.216 5.438.216 7.5 0 2.063-.215.375-.392-3.75-.392s-5.812.177-3.75.392m-537.062 7.716c-7.208 10.963-17.948 18.745-30.688 22.236-3.075.843-9.042 1.288-15.5 1.156l-10.5-.215-.309 177.94c-.169 97.866-.007 188.401.362 201.189l.671 23.25 53.138-.241 53.138-.241-52.75-.268-52.75-.268v-20.653l78.75-.664c137.861-1.162 282.884-.51 278.052 1.251-1.345.49-1.216.874.797 2.381l2.401 1.796v-6.352l123.75.38c68.063.208 123.862.042 124-.371.138-.413.25-85.912.251-190V526.5l-8.884.345c-14.432.561-24.842-2.624-35.925-10.991-4.537-3.425-11.071-11.121-14.702-17.317-.859-1.466-1.732-.666-5.856 5.369C862.296 519.037 847.078 527 828.5 527c-9.337 0-17.71-1.933-24.925-5.753-6.072-3.215-19.589-16.431-21.475-20.997-.739-1.788-1.626-3.247-1.971-3.242-.346.004-1.638 1.775-2.871 3.934-3.479 6.093-12.468 15.208-18.691 18.953-14.214 8.553-35.108 9.539-50.399 2.379-7.426-3.477-15.993-10.89-20.658-17.872-2.168-3.246-4.221-6.255-4.561-6.687-.341-.432-2.234 1.647-4.207 4.619C667.971 518.556 652.483 527 633.5 527c-9.149 0-17.228-1.815-24.515-5.508-6.487-3.287-18.036-14.227-21.084-19.972-1.319-2.486-2.623-4.516-2.899-4.511-.276.005-2.252 2.724-4.39 6.043-7.096 11.013-18.239 19.167-30.743 22.495-6.891 1.834-20.847 1.834-27.738 0-12.326-3.281-24.452-12.204-31.131-22.911-1.925-3.086-3.726-5.616-4.002-5.623-.276-.007-1.561 1.984-2.856 4.426-3.13 5.9-14.376 16.633-20.884 19.93-20.078 10.175-45.699 6.584-61.178-8.574-5.344-5.232-11.08-12.856-11.08-14.725 0-2.396-1.796-.736-5.812 5.374m255.681 59.45c-4.746.946-9.793 2.481-11.214 3.413-2.392 1.567-11.517 1.693-122.613 1.693H387.013l-.256 144.627c-.17 95.736.081 144.756.743 145.007.55.208 108.775.263 240.5.122l239.5-.256.274-142.5c.151-78.375.029-143.513-.269-144.75l-.543-2.25H760.588C645.08 568 653 568.374 653 562.918c0-2.297-.717-2.298-12.131-.024M399.224 596.25c.232 12.832.514 15.23 1.776 15.126.825-.068 11.505-2.013 23.734-4.322 12.228-2.308 23.248-4.053 24.489-3.876 2.099.3 2.384 1.242 4.13 13.692 1.552 11.063 1.645 13.513.539 14.197-2.8 1.73 1.764 1.987 10.49.59 7.354-1.178 8.861-1.187 9.296-.055.392 1.022 1.314.743 3.796-1.15 3.976-3.032 13.216-5.703 13.866-4.008.238.62 1.208 5.836 2.156 11.591 2.302 13.983 2.483 14.331 4.131 7.965 2.228-8.605 5.972-15.351 11.267-20.304 5.709-5.34 10.473-6.916 19.981-6.607 3.677.119 7.572-.257 8.655-.835 3.452-1.842 22.609-4.647 23.367-3.421.371.6 1.534 7.745 2.586 15.879l1.912 14.788 1.31-6.437c2.138-10.503 6.822-19.41 13.42-25.518 7.506-6.949 13.355-9.033 25.375-9.04 8.017-.004 9.51.295 13.666 2.738 6.298 3.702 11.502 10.027 13.522 16.435.918 2.914 1.797 5.17 1.954 5.014.411-.412-5.512-39.561-6.56-43.357-.486-1.76-.628-3.455-.316-3.768.312-.312-51.044-.567-114.125-.567H398.948l.276 15.25m258.433 2.5c1.281 9.763 2.651 20.225 3.045 23.25l.717 5.5 1.295-9.5c2.599-19.059 9.501-26.691 27.498-30.409 19.664-4.061 30.778 5.654 36.41 31.829 2.438 11.327 2.937 28.909 1.032 36.315-4.683 18.197-14.667 26.753-31.206 26.744-6.658-.004-8.909-.446-13-2.55-6.076-3.125-11.489-10.012-14.864-18.908-2.963-7.812-3.147-6.136-.945 8.614l1.662 11.134-2.194 3.08c-2.44 3.427-6.357 4.88-15.632 5.8-4.632.46-6.307.258-7.245-.872-.671-.808-2.36-9.976-3.755-20.373-3.314-24.714-3.452-25.404-5.086-25.404-.764 0-1.389.659-1.389 1.465 0 2.243-3.146 3.469-14.285 5.567-5.618 1.058-11.34 2.196-12.715 2.529l-2.5.606 2.806 2.417c3.794 3.268 9.854 3.236 16.098-.084 2.586-1.375 5.488-2.5 6.449-2.5.961 0 2.287-.54 2.947-1.2 2.192-2.192 3.078.474 5.287 15.897l2.175 15.184-3.249 4.103C631.314 694.179 618.814 699 605.856 699c-9.665 0-16.886-2.513-23.208-8.079-4.801-4.226-11.005-13.499-12.187-18.218-1.631-6.506-1.432-.939.453 12.658l2.021 14.586-2.76 3.022c-3.212 3.517-11.834 5.618-19.028 4.635-3.418-.466-4.962-.16-7.192 1.428-19.025 13.547-40.574-.625-46.619-30.661-.871-4.329-1.742-8.048-1.936-8.264-.193-.215-.947.102-1.675.707-.729.604-3.253 1.407-5.61 1.784-2.358.377-4.514 1.278-4.792 2.003-.279.726.826 10.419 2.454 21.542 2.216 15.136 2.679 20.572 1.842 21.612-3.484 4.324-4.729 4.981-11.71 6.175-9.433 1.614-12.095 1.233-13.504-1.93-.612-1.375-3.745-21.107-6.962-43.848l-5.849-41.348-3.421.555c-1.881.306-3.663.798-3.959 1.094-.555.555 3.743 33.018 8.67 65.492 2.606 17.168 2.689 18.638 1.208 21.234-1.973 3.457-2.507 3.687-13.57 5.846-9.515 1.857-12.926 1.436-13.921-1.718-.313-.994-1.467-8.557-2.564-16.807-4.525-34.044-9.368-67.043-9.933-67.685-.332-.377-3.419-.427-6.859-.111l-6.255.575.255 100.377.255 100.377 114.925-.025c63.209-.013 115.083-.183 115.277-.376.193-.194-7.873-12.096-17.925-26.45-20.271-28.944-18.349-27.204-32.272-29.228-3.848-.559-7.604-1.625-8.348-2.369-3.026-3.025.308-5.081 21.036-12.973 11.169-4.252 23.544-9 27.501-10.55 11.39-4.462 19.614-5.052 14.806-1.062-.825.685-1.5 1.683-1.5 2.218 0 .535-.982 2.352-2.181 4.037l-2.182 3.063 5.432-.608c20.506-2.293 52.042-4.933 52.575-4.4.352.353.014 1.414-.751 2.358-1.208 1.488-1.194 1.597.107.818.825-.494 3.397-2.342 5.716-4.107 8.6-6.548 25.209-10.127 34.843-7.508 12.676 3.445 23.451 17.678 25.938 34.259.615 4.101.397 4.863-2.208 7.715-2.742 3.001-3.957 3.378-23.55 7.299-18.638 3.73-20.569 4.304-19.734 5.865 1.465 2.737 7.942 5.277 13.457 5.277 6.026 0 12.16-2.827 18.266-8.416 2.325-2.128 5.111-3.87 6.191-3.87 1.079 0 2.241-.45 2.581-1 1.508-2.44 2.691-.829 2.019 2.75-2.77 14.774-16.345 28.075-31.888 31.244-24.408 4.978-47.383-19.793-42.694-46.031.652-3.649 2.263-8.959 3.579-11.799 1.315-2.84 2.167-5.164 1.893-5.164-.384 0-11.837 7.619-16.591 11.037-.411.296-4.155 12.896-8.32 28-4.165 15.105-7.767 28.028-8.005 28.718-.347 1.002 20.509 1.203 103.562 1l103.997-.255-.011-102c-.006-56.1-.017-115.612-.026-132.25L855 581H655.329l2.328 17.75M.407 617c0 9.075.152 12.788.337 8.25.185-4.538.185-11.962 0-16.5s-.337-.825-.337 8.25m690.164 6.571c-3.363 3.364-.984 13.802 3.871 16.983 2.446 1.603 2.726 1.604 4.469.027 5.394-4.882 1.744-18.581-4.95-18.581-1 0-2.525.707-3.39 1.571m-90.904 4.096c-.367.366-.667 1.544-.667 2.616 0 1.534.48 1.822 2.25 1.347 1.237-.331 2.587-.609 3-.616 1.423-.026.746-2.802-.832-3.407-2.033-.78-2.926-.766-3.751.06M528.75 648.08c-3.536 2.06-1.338 12.994 3.259 16.214 2.776 1.944 4.651 1.265 6.528-2.366 4.407-8.522-2.398-18.152-9.787-13.848m136.329 4.503c.048 1.165.285 1.402.604.605.289-.722.253-1.585-.079-1.917-.332-.332-.568.258-.525 1.312m96.224 41.863c-5.609.672-10.896 1.801-11.75 2.51-.883.733-1.552 2.855-1.551 4.916.003 4.17 3.81 40.872 4.473 43.128.243.825 1.356 10.5 2.474 21.5 2.68 26.377 2.679 26.374 5.605 27.707 3.141 1.431 3.073 1.929-.539 3.985-4.173 2.374-7.007 7.465-7.011 12.597-.003 3.582.614 4.946 3.746 8.281 3.15 3.352 4.55 4.078 8.75 4.53 7.51.808 13.13-2.4 16.815-9.6 2.053-4.01 2.675-6.409 2.296-8.856-.702-4.531-3.162-8.052-6.653-9.52l-2.892-1.216 2.7-2.911 2.699-2.912.68-30.542c.373-16.799.719-38.306.767-47.793L782 693l-5.25.112c-2.888.062-9.839.662-15.447 1.334m-139.731 85.438c-.336.544 3.19 7.147 7.837 14.673l8.449 13.684 1.043-3.871c.574-2.128 1.726-6.12 2.56-8.87.835-2.75 1.522-5.364 1.528-5.808.006-.444-4.377-2.903-9.739-5.464-5.362-2.561-10.046-4.808-10.408-4.995-.362-.186-.934.107-1.27.651m86.928 1.49c-4.017 1.767-5.144 3.341-5.968 8.334-.615 3.73-.486 4.17 1.137 3.873 1.007-.184 5.769-.912 10.581-1.619 9.944-1.459 10.864-2.667 6-7.874-3.283-3.514-7.642-4.521-11.75-2.714M937 917.981v9.981l-22.25.289-22.25.289 22.75.23L938 929v-10.5c0-5.775-.225-10.5-.5-10.5s-.5 4.491-.5 9.981m-286.25 10.766c7.288.171 19.212.171 26.5 0 7.288-.17 1.325-.31-13.25-.31s-20.538.14-13.25.31" fill="undefined" fill-rule="evenodd"/></svg>